<svg viewBox="0 0 1200 2000" xmlns="http://www.w3.org/2000/svg">
  <!-- Background -->
  <rect width="1200" height="2000" fill="#f8f9fa"/>
  
  <!-- Title Section -->
  <rect x="100" y="40" width="1000" height="100" rx="10" fill="#2C3E50"/>
  <text x="600" y="95" text-anchor="middle" fill="white" font-size="36" font-weight="bold">The Give Hub: Blockchain-Powered Social Impact Platform</text>
  <text x="600" y="125" text-anchor="middle" fill="white" font-size="20">Connecting Global Donors with Communities in Africa and Latin America</text>

  <!-- Core Technology Section -->
  <rect x="100" y="180" width="1000" height="220" rx="10" fill="#ffffff" stroke="#2C3E50" stroke-width="2"/>
  <text x="600" y="210" text-anchor="middle" font-size="24" font-weight="bold" fill="#2C3E50">Core Technology Stack</text>
  
  <!-- Technology Components -->
  <circle cx="250" cy="280" r="35" fill="#3498DB"/>
  <text x="250" y="285" text-anchor="middle" fill="white" font-size="20">1</text>
  <text x="250" y="340" text-anchor="middle" font-size="16" font-weight="bold">Stellar Blockchain</text>
  <text x="250" y="360" text-anchor="middle" font-size="14">Low-cost transactions</text>
  
  <circle cx="500" cy="280" r="35" fill="#3498DB"/>
  <text x="500" y="285" text-anchor="middle" fill="white" font-size="20">2</text>
  <text x="500" y="340" text-anchor="middle" font-size="16" font-weight="bold">Soroban Contracts</text>
  <text x="500" y="360" text-anchor="middle" font-size="14">Automated milestones</text>
  
  <circle cx="750" cy="280" r="35" fill="#3498DB"/>
  <text x="750" y="285" text-anchor="middle" fill="white" font-size="20">3</text>
  <text x="750" y="340" text-anchor="middle" font-size="16" font-weight="bold">Digital Assistants</text>
  <text x="750" y="360" text-anchor="middle" font-size="14">Local verification</text>
  
  <circle cx="1000" cy="280" r="35" fill="#3498DB"/>
  <text x="1000" y="285" text-anchor="middle" fill="white" font-size="20">4</text>
  <text x="1000" y="340" text-anchor="middle" font-size="16" font-weight="bold">Impact Tracking</text>
  <text x="1000" y="360" text-anchor="middle" font-size="14">Real-time reporting</text>

  <!-- Two Main Pillars -->
  <rect x="100" y="440" width="475" height="600" rx="10" fill="#ffffff" stroke="#2C3E50" stroke-width="2"/>
  <text x="337.5" y="470" text-anchor="middle" font-size="24" font-weight="bold" fill="#2C3E50">Crowdfunding</text>
  
  <rect x="625" y="440" width="475" height="600" rx="10" fill="#ffffff" stroke="#2C3E50" stroke-width="2"/>
  <text x="862.5" y="470" text-anchor="middle" font-size="24" font-weight="bold" fill="#2C3E50">Microfinance</text>
  
  <!-- Crowdfunding Details -->
  <rect x="120" y="490" width="435" height="530" rx="5" fill="#f8f9fa"/>
  
  <text x="140" y="520" font-size="18" font-weight="bold" fill="#2C3E50">Project Types:</text>
  <text x="160" y="550" font-size="14">• Community Infrastructure</text>
  <text x="160" y="575" font-size="14">• Education Initiatives</text>
  <text x="160" y="600" font-size="14">• Healthcare Programs</text>
  
  <text x="140" y="640" font-size="18" font-weight="bold" fill="#2C3E50">Features:</text>
  <text x="160" y="670" font-size="14">• Milestone-based funding</text>
  <text x="160" y="695" font-size="14">• Transparent tracking</text>
  <text x="160" y="720" font-size="14">• Direct donor engagement</text>
  
  <text x="140" y="760" font-size="18" font-weight="bold" fill="#2C3E50">Validation:</text>
  <text x="160" y="790" font-size="14">• Local government verification</text>
  <text x="160" y="815" font-size="14">• Community endorsement</text>
  <text x="160" y="840" font-size="14">• Impact documentation</text>
  
  <text x="140" y="880" font-size="18" font-weight="bold" fill="#2C3E50">Fees:</text>
  <text x="160" y="910" font-size="14">• 1-2% platform fee</text>
  <text x="160" y="935" font-size="14">• Transparent cost structure</text>
  
  <!-- Microfinance Details -->
  <rect x="645" y="490" width="435" height="530" rx="5" fill="#f8f9fa"/>
  
  <text x="665" y="520" font-size="18" font-weight="bold" fill="#2C3E50">Loan Products:</text>
  <text x="685" y="550" font-size="14">• Individual ($100-$2,000)</text>
  <text x="685" y="575" font-size="14">• Group (5-10 members)</text>
  <text x="685" y="600" font-size="14">• Emergency loans</text>
  
  <text x="665" y="640" font-size="18" font-weight="bold" fill="#2C3E50">Terms:</text>
  <text x="685" y="670" font-size="14">• 3-24 months duration</text>
  <text x="685" y="695" font-size="14">• 5-12% APR</text>
  <text x="685" y="720" font-size="14">• Flexible repayment</text>
  
  <text x="665" y="760" font-size="18" font-weight="bold" fill="#2C3E50">Support:</text>
  <text x="685" y="790" font-size="14">• Financial education</text>
  <text x="685" y="815" font-size="14">• Business mentoring</text>
  <text x="685" y="840" font-size="14">• Tech training</text>
  
  <text x="665" y="880" font-size="18" font-weight="bold" fill="#2C3E50">Risk Management:</text>
  <text x="685" y="910" font-size="14">• Group guarantees</text>
  <text x="685" y="935" font-size="14">• Portfolio diversification</text>

  <!-- Implementation Process -->
  <rect x="100" y="1080" width="1000" height="200" rx="10" fill="#ffffff" stroke="#2C3E50" stroke-width="2"/>
  <text x="600" y="1110" text-anchor="middle" font-size="24" font-weight="bold" fill="#2C3E50">Implementation Timeline</text>
  
  <!-- Timeline Steps -->
  <line x1="200" y1="1180" x2="1000" y2="1180" stroke="#3498DB" stroke-width="4"/>
  
  <circle cx="200" cy="1180" r="20" fill="#3498DB"/>
  <text x="200" y="1220" text-anchor="middle" font-size="14">Phase 1</text>
  <text x="200" y="1240" text-anchor="middle" font-size="12">Platform Dev</text>
  
  <circle cx="400" cy="1180" r="20" fill="#3498DB"/>
  <text x="400" y="1220" text-anchor="middle" font-size="14">Phase 2</text>
  <text x="400" y="1240" text-anchor="middle" font-size="12">Pilot Launch</text>
  
  <circle cx="600" cy="1180" r="20" fill="#3498DB"/>
  <text x="600" y="1220" text-anchor="middle" font-size="14">Phase 3</text>
  <text x="600" y="1240" text-anchor="middle" font-size="12">Regional Growth</text>
  
  <circle cx="800" cy="1180" r="20" fill="#3498DB"/>
  <text x="800" y="1220" text-anchor="middle" font-size="14">Phase 4</text>
  <text x="800" y="1240" text-anchor="middle" font-size="12">Scale Up</text>
  
  <circle cx="1000" cy="1180" r="20" fill="#3498DB"/>
  <text x="1000" y="1220" text-anchor="middle" font-size="14">Phase 5</text>
  <text x="1000" y="1240" text-anchor="middle" font-size="12">Global Expansion</text>

  <!-- Key Partners -->
  <rect x="100" y="1320" width="1000" height="280" rx="10" fill="#ffffff" stroke="#2C3E50" stroke-width="2"/>
  <text x="600" y="1350" text-anchor="middle" font-size="24" font-weight="bold" fill="#2C3E50">Strategic Partners</text>
  
  <!-- Partner Categories -->
  <rect x="120" y="1380" width="300" height="200" rx="5" fill="#f8f9fa"/>
  <text x="270" y="1410" text-anchor="middle" font-size="18" font-weight="bold" fill="#2C3E50">Financial</text>
  <text x="270" y="1440" text-anchor="middle" font-size="14">MoneyGram</text>
  <text x="270" y="1465" text-anchor="middle" font-size="14">Mobile Money Providers</text>
  <text x="270" y="1490" text-anchor="middle" font-size="14">Local Banks</text>
  
  <rect x="450" y="1380" width="300" height="200" rx="5" fill="#f8f9fa"/>
  <text x="600" y="1410" text-anchor="middle" font-size="18" font-weight="bold" fill="#2C3E50">Technology</text>
  <text x="600" y="1440" text-anchor="middle" font-size="14">Stellar Foundation</text>
  <text x="600" y="1465" text-anchor="middle" font-size="14">AI Analytics Firms</text>
  <text x="600" y="1490" text-anchor="middle" font-size="14">Mobile App Developers</text>
  
  <rect x="780" y="1380" width="300" height="200" rx="5" fill="#f8f9fa"/>
  <text x="930" y="1410" text-anchor="middle" font-size="18" font-weight="bold" fill="#2C3E50">Community</text>
  <text x="930" y="1440" text-anchor="middle" font-size="14">Local NGOs</text>
  <text x="930" y="1465" text-anchor="middle" font-size="14">Government Agencies</text>
  <text x="930" y="1490" text-anchor="middle" font-size="14">Business Associations</text>

  <!-- Impact Metrics -->
  <rect x="100" y="1640" width="1000" height="320" rx="10" fill="#ffffff" stroke="#2C3E50" stroke-width="2"/>
  <text x="600" y="1670" text-anchor="middle" font-size="24" font-weight="bold" fill="#2C3E50">Success Metrics</text>
  
  <!-- Metric Categories -->
  <rect x="120" y="1700" width="300" height="240" rx="5" fill="#f8f9fa"/>
  <text x="270" y="1730" text-anchor="middle" font-size="18" font-weight="bold" fill="#2C3E50">Financial</text>
  <text x="270" y="1760" text-anchor="middle" font-size="14">• Projects Funded</text>
  <text x="270" y="1785" text-anchor="middle" font-size="14">• Loan Performance</text>
  <text x="270" y="1810" text-anchor="middle" font-size="14">• Transaction Volume</text>
  <text x="270" y="1835" text-anchor="middle" font-size="14">• Default Rates</text>
  
  <rect x="450" y="1700" width="300" height="240" rx="5" fill="#f8f9fa"/>
  <text x="600" y="1730" text-anchor="middle" font-size="18" font-weight="bold" fill="#2C3E50">Social Impact</text>
  <text x="600" y="1760" text-anchor="middle" font-size="14">• Jobs Created</text>
  <text x="600" y="1785" text-anchor="middle" font-size="14">• Lives Improved</text>
  <text x="600" y="1810" text-anchor="middle" font-size="14">• Community Development</text>
  <text x="600" y="1835" text-anchor="middle" font-size="14">• Women Empowerment</text>
  
  <rect x="780" y="1700" width="300" height="240" rx="5" fill="#f8f9fa"/>
  <text x="930" y="1730" text-anchor="middle" font-size="18" font-weight="bold" fill="#2C3E50">Operational</text>
  <text x="930" y="1760" text-anchor="middle" font-size="14">• Platform Adoption</text>
  <text x="930" y="1785" text-anchor="middle" font-size="14">• Processing Speed</text>
  <text x="930" y="1810" text-anchor="middle" font-size="14">• User Satisfaction</text>
  <text x="930" y="1835" text-anchor="middle" font-size="14">• Regional Coverage</text>
</svg>
