<svg xmlns="http://www.w3.org/2000/svg" viewBox="0 0 702.532 702.532">
  <ellipse style="fill: rgb(37, 99, 235);" cx="351.266" cy="351.266" rx="351.266" ry="351.266"></ellipse>
  <path d="M 340.553 96.879 C 340.553 114.579 354.853 128.879 372.553 128.879 C 496.254 128.879 596.554 229.179 596.554 352.88 C 596.554 370.58 610.854 384.88 628.554 384.88 C 646.254 384.88 660.554 370.58 660.554 352.88 C 660.554 193.779 531.654 64.879 372.553 64.879 C 354.853 64.879 340.553 79.179 340.553 96.879 Z M 340.553 192.879 C 340.553 210.579 354.853 224.879 372.553 224.879 C 443.254 224.879 500.554 282.179 500.554 352.88 C 500.554 370.58 514.854 384.88 532.554 384.88 C 550.254 384.88 564.554 370.58 564.554 352.88 C 564.554 246.879 478.554 160.879 372.553 160.879 C 354.853 160.879 340.553 175.179 340.553 192.879 Z" style="transform-box: fill-box; transform-origin: 50% 50%; fill: rgb(255, 255, 255);" transform="matrix(0.989303, 0.145873, -0.145873, 0.989303, 0.000006, 0.000008)"></path>
  <path fill-rule="evenodd" d="M 170.581 630.828 C 172.402 625.321 174.224 619.812 176.045 614.305 C 179.289 609.714 226.358 585.942 233.418 583.203 C 233.418 583.527 233.418 583.851 233.418 584.175 C 227.954 592.273 222.49 600.375 217.026 608.473 C 237.699 604.814 249.114 590.545 262.56 579.315 C 262.864 579.315 263.168 579.315 263.471 579.315 C 263.471 580.611 263.471 581.907 263.471 583.203 C 262.56 587.738 261.65 592.275 260.739 596.81 C 263.167 594.542 265.596 592.274 268.025 590.006 C 276.22 578.344 284.418 566.679 292.613 555.016 C 292.613 556.636 292.613 558.256 292.613 559.876 C 290.184 566.679 287.756 573.484 285.328 580.287 C 286.845 578.991 288.363 577.695 289.881 576.399 C 292.005 572.836 294.131 569.271 296.256 565.708 C 296.56 565.708 296.863 565.708 297.167 565.708 C 297.167 571.863 297.167 578.02 297.167 584.175 C 302.99 554.461 328.593 543.173 336.326 515.167 C 336.933 515.167 337.541 515.167 338.148 515.167 C 337.844 521.97 337.541 528.775 337.237 535.577 C 337.237 534.93 337.237 534.282 337.237 533.634 C 345.972 524.461 347.826 503.218 344.522 486.98 C 344.825 486.98 345.13 486.98 345.433 486.98 C 346.04 487.304 346.647 487.628 347.254 487.952 C 350.832 499.342 352.409 507.614 350.897 521.97 C 351.807 521.322 352.718 520.674 353.629 520.026 C 358.512 507.219 362.606 496.719 360.004 479.205 C 360.307 479.205 360.611 479.205 360.914 479.205 C 365.886 482.141 368.325 485.347 370.022 491.84 C 370.629 491.516 371.236 491.192 371.843 490.868 C 372.16 470.415 363.091 470.646 349.987 464.626 C 356.444 457.279 363.798 453.025 365.467 440.327 C 361.826 443.243 358.182 446.159 354.54 449.074 C 363.11 433.237 365.398 421.302 362.736 398.533 C 362.433 398.533 362.129 398.533 361.826 398.533 C 360.653 408.131 356.78 416.21 350.897 420.888 C 355.183 392.555 349.018 363.196 334.505 348.964 C 334.808 353.824 335.112 358.684 335.415 363.543 C 335.112 362.896 334.808 362.247 334.505 361.6 C 324.942 347.884 320.773 331.955 309.006 320.778 C 309.916 324.341 310.827 327.906 311.737 331.469 C 300.156 322.241 284.531 307.806 278.952 292.592 C 278.042 286.76 277.131 280.928 276.221 275.097 C 268.717 273.901 265.395 275.597 259.829 278.012 C 270.791 254.62 305.577 213.196 327.219 202.201 C 327.219 201.877 327.219 201.553 327.219 201.229 C 250.159 208.1 203.392 180.668 158.742 145.828 C 158.439 145.828 158.135 145.828 157.832 145.828 C 154.714 182.706 136.078 206.666 122.315 231.359 C 116.452 241.879 121.236 255.971 110.476 261.489 C 89.796 272.89 61.524 238.858 49.46 265.377 C 41.359 284.539 64.013 282.042 43.996 308.143 C 44.299 309.114 44.603 310.087 44.906 311.058 C 48.291 317.757 52.551 322.288 59.478 321.75 C 109.601 317.86 144.534 341.786 70.405 389.786 C 63.24 394.426 55.342 397.682 49.46 403.393 C 54.022 411.318 51.312 412.817 49.46 421.86 C 53.528 424.27 57.336 425.948 59.478 430.608 C 59.478 431.903 59.478 433.2 59.478 434.495 C 54.924 440.974 50.37 447.455 45.817 453.934 C 42.518 468.249 85.322 475.752 94.083 482.121 C 93.075 491.095 93.981 494.095 97.726 499.616 C 119.605 503.288 136.238 523.374 147.814 538.493 C 147.814 538.817 147.814 539.141 147.814 539.465 C 145.993 539.465 144.171 539.465 142.35 539.465 C 136.279 537.198 130.206 534.929 124.137 532.662 C 126.174 539.326 131.187 545.465 136.886 548.213 C 136.886 548.861 136.886 549.509 136.886 550.157 C 122.948 550.823 112.976 557.572 106.833 566.68 C 113.511 566.68 120.19 566.68 126.868 566.68 C 122.901 573.533 121.961 579.901 124.137 589.034 C 124.44 589.034 124.744 589.034 125.047 589.034 C 126.908 576.444 134.784 573.001 145.993 570.567 C 141.626 590.148 140.323 608.069 154.189 620.137 C 152.24 606.936 156.658 598.676 164.206 592.922 C 164.509 592.922 164.814 592.922 165.117 592.922 C 163.83 608.147 165.681 620.273 170.581 630.828 Z M 365.467 440.327 C 365.771 439.679 366.075 439.031 366.379 438.383 C 366.075 439.031 365.771 439.679 365.467 440.327 Z" style="stroke-width: 0.937; transform-box: fill-box; transform-origin: 50% 50%; fill: rgb(255, 255, 255);" transform="matrix(-1, 0, 0, -1, 0.000077, -0.000038)"></path>
</svg>
