<svg xmlns="http://www.w3.org/2000/svg" width="500" zoomAndPan="magnify" viewBox="0 0 450 450" height="500" preserveAspectRatio="xMidYMid meet" version="1.0" xmlns:bx="https://boxy-svg.com">
  <defs>
    <filter x="0%" y="0%" width="100%" height="100%" id="40ec82a62e">
      <feColorMatrix values="0 0 0 0 1 0 0 0 0 1 0 0 0 0 1 0 0 0 1 0" color-interpolation-filters="sRGB"></feColorMatrix>
    </filter>
    <g></g>
    <clipPath id="997eeaadf5">
      <path d="M 92.765625 99.101562 L 282.515625 99.101562 L 282.515625 288.851562 L 92.765625 288.851562 Z M 92.765625 99.101562 " clip-rule="nonzero"></path>
    </clipPath>
    <clipPath id="119446c84a">
      <path d="M 187.5 144.871094 C 160.457031 144.871094 138.539062 166.792969 138.539062 193.835938 C 138.539062 220.875 160.457031 242.796875 187.5 242.796875 C 214.542969 242.796875 236.460938 220.875 236.460938 193.835938 C 236.460938 166.792969 214.542969 144.871094 187.5 144.871094 Z M 187.5 144.871094 " clip-rule="nonzero"></path>
    </clipPath>
    <mask id="158cf29361">
      <g filter="url(#40ec82a62e)">
        <rect x="-37.5" width="450" fill="#000000" y="-37.499999" height="449.999989" fill-opacity="0.28"></rect>
      </g>
    </mask>
    <bx:export>
      <bx:file format="png"></bx:file>
    </bx:export>
  </defs>
  <ellipse style="fill: rgb(10, 107, 166); stroke: rgb(85, 168, 218); stroke-width: 16px;" cx="226.515" cy="221.215" rx="194.062" ry="194.062"></ellipse>
  <rect width="450" fill="#ffffff" height="450" fill-opacity="1" style="visibility: hidden;"></rect>
  <g clip-path="url(#997eeaadf5)" style="" transform="matrix(1, 0, 0, 1, 38.004705, 26.396375)">
    <bx:title>Logo</bx:title>
    <path d="M 187.640625 244.726562 C 159.65625 244.726562 136.890625 221.960938 136.890625 193.976562 C 136.890625 165.992188 159.65625 143.226562 187.640625 143.226562 C 215.625 143.226562 238.394531 165.992188 238.394531 193.976562 C 238.394531 221.960938 215.625 244.726562 187.640625 244.726562 Z M 271.515625 182.972656 C 266.636719 182.972656 262.507812 186.144531 261.0625 190.539062 L 245.167969 190.539062 C 244.378906 177.234375 239.0625 165.128906 230.730469 155.753906 L 244.269531 142.214844 C 248.394531 144.296875 253.5625 143.621094 257.007812 140.171875 C 261.304688 135.875 261.304688 128.90625 257.007812 124.609375 C 252.710938 120.3125 245.746094 120.3125 241.449219 124.609375 C 238 128.058594 237.320312 133.222656 239.40625 137.351562 L 225.867188 150.886719 C 216.488281 142.558594 204.386719 137.238281 191.082031 136.453125 L 191.082031 120.558594 C 195.472656 119.113281 198.644531 114.980469 198.644531 110.105469 C 198.644531 104.027344 193.71875 99.101562 187.640625 99.101562 C 181.566406 99.101562 176.640625 104.027344 176.640625 110.105469 C 176.640625 114.980469 179.8125 119.113281 184.203125 120.558594 L 184.203125 136.453125 C 170.898438 137.238281 158.796875 142.558594 149.417969 150.886719 L 135.878906 137.351562 C 137.964844 133.222656 137.285156 128.058594 133.835938 124.609375 C 129.539062 120.3125 122.574219 120.3125 118.277344 124.609375 C 113.980469 128.90625 113.980469 135.875 118.277344 140.171875 C 121.722656 143.621094 126.886719 144.296875 131.015625 142.214844 L 144.550781 155.753906 C 136.226562 165.128906 130.90625 177.234375 130.117188 190.539062 L 114.222656 190.539062 C 112.777344 186.144531 108.644531 182.972656 103.769531 182.972656 C 97.695312 182.972656 92.765625 187.898438 92.765625 193.976562 C 92.765625 200.054688 97.695312 204.980469 103.769531 204.980469 C 108.644531 204.980469 112.777344 201.808594 114.222656 197.417969 L 130.117188 197.417969 C 130.90625 210.722656 136.226562 222.824219 144.550781 232.203125 L 131.015625 245.738281 C 126.886719 243.65625 121.722656 244.335938 118.277344 247.78125 C 113.980469 252.078125 113.980469 259.046875 118.277344 263.34375 C 122.574219 267.640625 129.539062 267.640625 133.835938 263.34375 C 137.285156 259.898438 137.964844 254.730469 135.878906 250.605469 L 149.417969 237.066406 C 158.796875 245.394531 170.898438 250.714844 184.203125 251.503906 L 184.203125 267.398438 C 179.8125 268.84375 176.640625 272.972656 176.640625 277.847656 C 176.640625 283.925781 181.566406 288.851562 187.640625 288.851562 C 193.71875 288.851562 198.644531 283.925781 198.644531 277.847656 C 198.644531 272.972656 195.472656 268.84375 191.082031 267.398438 L 191.082031 251.503906 C 204.386719 250.714844 216.488281 245.394531 225.867188 237.066406 L 239.40625 250.605469 C 237.320312 254.730469 238 259.898438 241.449219 263.34375 C 245.746094 267.640625 252.710938 267.640625 257.007812 263.34375 C 261.304688 259.046875 261.304688 252.078125 257.007812 247.78125 C 253.5625 244.335938 248.394531 243.65625 244.269531 245.738281 L 230.730469 232.203125 C 239.0625 222.824219 244.378906 210.722656 245.167969 197.417969 L 261.0625 197.417969 C 262.507812 201.808594 266.636719 204.980469 271.515625 204.980469 C 277.589844 204.980469 282.515625 200.054688 282.515625 193.976562 C 282.515625 187.898438 277.589844 182.972656 271.515625 182.972656 " fill-opacity="1" fill-rule="nonzero" style="fill: rgb(218, 78, 78);">
      <bx:title>Network</bx:title>
    </path>
    <g clip-path="url(#119446c84a)" style="">
      <bx:title>Circle</bx:title>
      <path d="M 138.539062 144.871094 L 236.460938 144.871094 L 236.460938 242.796875 L 138.539062 242.796875 Z M 138.539062 144.871094 " fill-opacity="1" fill-rule="nonzero" style="fill: rgb(218, 78, 78);"></path>
    </g>
  </g>
  <g mask="url(#158cf29361)" style="" transform="matrix(1, 0, 0, 1, 42.042398, 28.41521)">
    <bx:title>Stellar Logo</bx:title>
    <path d="M 218.027 163.793 L 214.273 165.703 L 196.145 174.941 C 196.082 174.473 196.051 174.004 196.051 173.531 C 196.051 173.063 196.082 172.594 196.145 172.129 C 196.203 171.668 196.297 171.207 196.418 170.754 C 196.539 170.301 196.688 169.859 196.867 169.426 C 197.043 168.992 197.25 168.574 197.484 168.168 C 197.715 167.762 197.977 167.371 198.258 167 C 198.543 166.625 198.852 166.273 199.18 165.941 C 199.508 165.609 199.859 165.297 200.23 165.012 C 200.598 164.723 200.988 164.461 201.391 164.227 C 201.793 163.988 202.211 163.777 202.645 163.598 C 203.074 163.414 203.516 163.262 203.969 163.137 C 204.418 163.008 204.879 162.914 205.34 162.848 C 205.805 162.785 206.27 162.75 206.738 162.742 C 207.207 162.738 207.676 162.766 208.141 162.82 C 208.605 162.875 209.066 162.961 209.52 163.078 C 209.973 163.191 210.418 163.336 210.852 163.512 C 211.289 163.684 211.711 163.887 212.117 164.113 L 214.266 163.02 L 214.59 162.855 C 213.605 162.141 212.539 161.574 211.398 161.152 C 210.258 160.73 209.082 160.473 207.867 160.379 C 206.656 160.285 205.453 160.355 204.262 160.594 C 203.066 160.832 201.93 161.227 200.844 161.777 C 199.762 162.332 198.773 163.02 197.879 163.848 C 196.988 164.672 196.223 165.605 195.59 166.641 C 194.953 167.68 194.469 168.781 194.141 169.953 C 193.809 171.125 193.645 172.316 193.645 173.535 C 193.645 173.871 193.656 174.203 193.684 174.539 C 193.719 175.02 193.621 175.473 193.383 175.895 C 193.145 176.316 192.813 176.637 192.379 176.855 L 191.246 177.434 L 191.246 180.129 L 194.582 178.43 L 195.664 177.879 L 196.727 177.336 L 215.844 167.598 L 217.992 166.504 L 222.43 164.242 L 222.43 161.547 L 218.027 163.793 Z M 218.027 163.793" fill-opacity="1" fill-rule="nonzero" style="">
      <bx:title>Top</bx:title>
    </path>
    <path d="M 222.43 166.938 L 197.813 179.473 L 195.668 180.566 L 191.246 182.82 L 191.246 185.512 L 195.637 183.277 L 199.391 181.363 L 217.539 172.113 C 217.602 172.586 217.633 173.059 217.633 173.535 C 217.633 174.004 217.602 174.469 217.539 174.934 C 217.48 175.398 217.391 175.859 217.27 176.313 C 217.148 176.766 216.996 177.207 216.82 177.641 C 216.641 178.074 216.434 178.496 216.199 178.902 C 215.969 179.309 215.707 179.699 215.426 180.074 C 215.141 180.445 214.832 180.797 214.504 181.133 C 214.172 181.465 213.82 181.773 213.453 182.063 C 213.082 182.352 212.691 182.613 212.289 182.848 C 211.883 183.086 211.465 183.297 211.031 183.477 C 210.602 183.66 210.16 183.813 209.707 183.938 C 209.254 184.063 208.797 184.16 208.332 184.223 C 207.867 184.289 207.402 184.324 206.934 184.328 C 206.465 184.332 205.996 184.305 205.531 184.25 C 205.066 184.191 204.605 184.105 204.148 183.992 C 203.695 183.875 203.25 183.73 202.816 183.555 C 202.379 183.379 201.957 183.18 201.551 182.949 L 201.418 183.02 L 199.086 184.207 C 200.07 184.922 201.133 185.488 202.273 185.91 C 203.418 186.328 204.594 186.586 205.805 186.684 C 207.02 186.777 208.223 186.707 209.414 186.469 C 210.605 186.23 211.746 185.836 212.828 185.285 C 213.91 184.734 214.898 184.043 215.793 183.219 C 216.688 182.395 217.449 181.461 218.086 180.426 C 218.723 179.387 219.203 178.285 219.535 177.113 C 219.867 175.945 220.031 174.75 220.031 173.535 C 220.031 173.195 220.02 172.855 219.992 172.52 C 219.957 172.039 220.059 171.586 220.293 171.164 C 220.531 170.742 220.863 170.422 221.297 170.203 L 222.43 169.625 L 222.43 166.938 Z M 222.43 166.938" fill-opacity="1" fill-rule="nonzero" style="">
      <bx:title>Bottom</bx:title>
    </path>
  </g>
  <g style="" transform="matrix(1, 0, 0, 1, 38.005002, 26.396001)">
    <bx:title>Hand</bx:title>
    <path d="M 162.382812 208.144531 L 159.523438 210.15625 C 156.917969 211.992188 155.128906 212.761719 151.273438 205.992188 L 149.667969 203.1875 C 145.8125 196.40625 147.210938 194.941406 149.8125 193.113281 L 152.679688 191.097656 Z M 162.382812 208.144531 " fill-opacity="1" fill-rule="nonzero" style="fill: rgb(255, 211, 150);"></path>
    <path d="M 231.433594 192.648438 C 231.890625 193.5 232.105469 194.507812 232.003906 195.433594 C 231.886719 196.542969 231.359375 197.351562 230.90625 197.503906 L 200.9375 211.039062 C 196.59375 212.445312 189.746094 210.132812 183.703125 208.09375 C 178.566406 206.359375 174.132812 204.855469 171.433594 205.75 L 164.972656 206.9375 L 155.15625 189.703125 L 163.820312 185.78125 C 170.457031 182.773438 174.449219 184.28125 181.066406 186.777344 C 185.117188 188.308594 190.164062 190.203125 197.160156 191.511719 C 202.925781 192.585938 204.617188 196.445312 205.003906 197.601562 C 205.46875 199.007812 205.398438 200.378906 204.828125 201.089844 C 204.210938 201.84375 203.839844 201.828125 200.871094 200.953125 C 200.375 200.8125 199.828125 200.652344 199.226562 200.484375 C 199.136719 200.460938 199.046875 200.449219 198.953125 200.445312 L 185.695312 199.761719 C 184.921875 199.722656 184.289062 200.402344 184.285156 201.277344 C 184.285156 202.152344 184.910156 202.898438 185.679688 202.9375 L 198.804688 203.613281 C 199.339844 203.765625 199.828125 203.902344 200.273438 204.035156 C 203.214844 204.898438 205.15625 205.472656 206.929688 203.296875 C 207.863281 202.128906 208.25 200.433594 208.058594 198.605469 L 228.445312 190.851562 C 229.230469 190.613281 230.167969 190.996094 230.902344 191.863281 C 231.101562 192.105469 231.28125 192.375 231.433594 192.65625 Z M 231.433594 192.648438 " fill-opacity="1" fill-rule="nonzero" style="fill: rgb(255, 211, 150);"></path>
  </g>
  <g style="" transform="matrix(1, 0, 0, 1, 37.500001, 37.500001)">
    <bx:title>Tagline</bx:title>
    <g fill="#000000" fill-opacity="1">
      <g transform="translate(28.784873, 183.615454)">
        <g>
          <path d="M 0.046875 2.171875 L 16 1.8125 L 16.109375 6.359375 C 16.148438 8.210938 15.867188 9.691406 15.265625 10.796875 C 14.671875 11.898438 13.75 12.46875 12.5 12.5 C 11.613281 12.519531 10.835938 12.226562 10.171875 11.625 C 9.503906 11.019531 8.992188 10.171875 8.640625 9.078125 C 8.390625 10.535156 7.914062 11.644531 7.21875 12.40625 C 6.519531 13.164062 5.742188 13.554688 4.890625 13.578125 C 4.035156 13.597656 3.300781 13.398438 2.6875 12.984375 C 2.082031 12.566406 1.613281 12.023438 1.28125 11.359375 C 0.570312 10.003906 0.203125 8.613281 0.171875 7.1875 Z M 8.765625 4.3125 L 8.796875 6.046875 C 8.828125 7.503906 9.175781 8.539062 9.84375 9.15625 C 10.507812 9.78125 11.332031 10.082031 12.3125 10.0625 C 12.96875 10.050781 13.5625 9.816406 14.09375 9.359375 C 14.625 8.898438 15.015625 8.210938 15.265625 7.296875 C 15.242188 6.203125 15.0625 5.164062 14.71875 4.1875 Z M 8.0625 4.328125 L 1.1875 4.484375 C 1.039062 5.003906 0.976562 5.800781 1 6.875 C 1.03125 7.957031 1.347656 8.90625 1.953125 9.71875 C 2.566406 10.539062 3.40625 10.9375 4.46875 10.90625 C 5.53125 10.882812 6.40625 10.40625 7.09375 9.46875 C 7.789062 8.539062 8.125 7.4375 8.09375 6.15625 Z M 8.0625 4.328125 " style="fill: rgb(255, 196, 0);"></path>
        </g>
      </g>
    </g>
    <g fill="#000000" fill-opacity="1">
      <g transform="translate(29.696047, 204.424051)">
        <g>
          <path d="M 0.3125 2.15625 L 16.109375 -0.109375 L 16.4375 2.21875 L 1.921875 4.296875 C 1.773438 5.304688 1.742188 6.109375 1.828125 6.703125 L 3.1875 10.921875 L 1.546875 10.859375 Z M 0.3125 2.15625 " style="fill: rgb(255, 196, 0);"></path>
        </g>
      </g>
    </g>
    <g fill="#000000" fill-opacity="1">
      <g transform="translate(32.275932, 221.350275)">
        <g>
          <path d="M 18.171875 4.78125 C 18.722656 6.800781 18.515625 8.648438 17.546875 10.328125 C 16.578125 12.015625 14.921875 13.179688 12.578125 13.828125 C 11.046875 14.242188 9.640625 14.34375 8.359375 14.125 C 7.078125 13.914062 6.007812 13.46875 5.15625 12.78125 C 3.488281 11.457031 2.378906 9.796875 1.828125 7.796875 C 1.285156 5.796875 1.503906 3.953125 2.484375 2.265625 C 3.460938 0.585938 5.132812 -0.570312 7.5 -1.21875 C 8.71875 -1.550781 9.863281 -1.675781 10.9375 -1.59375 C 12.019531 -1.507812 12.945312 -1.269531 13.71875 -0.875 C 14.5 -0.476562 15.207031 0.03125 15.84375 0.65625 C 16.945312 1.8125 17.722656 3.1875 18.171875 4.78125 Z M 3.875 3.6875 C 3.289062 4.269531 2.898438 4.957031 2.703125 5.75 C 2.515625 6.539062 2.539062 7.382812 2.78125 8.28125 C 3.03125 9.175781 3.476562 9.90625 4.125 10.46875 C 4.769531 11.039062 5.503906 11.425781 6.328125 11.625 C 8.003906 12.007812 9.679688 11.972656 11.359375 11.515625 C 13.421875 10.953125 14.960938 10.085938 15.984375 8.921875 C 17.148438 7.609375 17.445312 5.894531 16.875 3.78125 C 15.925781 2.425781 14.703125 1.535156 13.203125 1.109375 C 11.703125 0.691406 10.140625 0.707031 8.515625 1.15625 C 6.535156 1.695312 4.988281 2.539062 3.875 3.6875 Z M 3.875 3.6875 " style="fill: rgb(255, 196, 0);"></path>
        </g>
      </g>
    </g>
    <g fill="#000000" fill-opacity="1">
      <g transform="translate(38.78115, 243.352148)">
        <g>
          <path d="M 3.484375 8.859375 C 2.503906 6.566406 2.296875 4.375 2.859375 2.28125 C 3.429688 0.1875 4.878906 -1.351562 7.203125 -2.34375 C 8.554688 -2.925781 9.875 -3.1875 11.15625 -3.125 C 12.445312 -3.070312 13.570312 -2.753906 14.53125 -2.171875 C 16.507812 -1.003906 17.953125 0.628906 18.859375 2.734375 C 19.378906 3.960938 19.707031 5.335938 19.84375 6.859375 L 18.234375 7.296875 C 18.242188 6.460938 18.234375 5.828125 18.203125 5.390625 C 18.128906 4.109375 17.851562 2.90625 17.375 1.78125 C 16.351562 0.382812 15.070312 -0.472656 13.53125 -0.796875 C 12 -1.128906 10.347656 -0.914062 8.578125 -0.15625 C 6.398438 0.769531 4.960938 2.050781 4.265625 3.6875 C 3.578125 5.332031 3.628906 7.085938 4.421875 8.953125 C 5.222656 10.816406 6.222656 12.035156 7.421875 12.609375 L 6.203125 13.140625 C 5.160156 12.078125 4.253906 10.648438 3.484375 8.859375 Z M 3.484375 8.859375 " style="fill: rgb(255, 196, 0);"></path>
        </g>
      </g>
    </g>
    <g fill="#000000" fill-opacity="1">
      <g transform="translate(47.239732, 262.16352)">
        <g>
          <path d="M 2.34375 3.984375 L 1.109375 1.875 L 14.84375 -6.234375 L 16.078125 -4.125 L 9.3125 -0.125 L 19.875 2.296875 L 20.6875 3.671875 L 10.453125 0.953125 L 7.46875 12.65625 L 5.625 10.140625 L 9.109375 -0.015625 Z M 2.34375 3.984375 " style="fill: rgb(255, 196, 0);"></path>
        </g>
      </g>
    </g>
    <g fill="#000000" fill-opacity="1">
      <g transform="translate(57.722315, 279.277867)">
        <g>
          <path d="M 5.609375 7.703125 C 4.078125 5.734375 3.320312 3.660156 3.34375 1.484375 C 3.363281 -0.691406 4.367188 -2.554688 6.359375 -4.109375 C 7.523438 -5.015625 8.738281 -5.597656 10 -5.859375 C 11.269531 -6.128906 12.441406 -6.101562 13.515625 -5.78125 C 15.722656 -5.15625 17.53125 -3.9375 18.9375 -2.125 C 19.757812 -1.070312 20.425781 0.175781 20.9375 1.625 L 19.5 2.4375 C 19.28125 1.632812 19.101562 1.023438 18.96875 0.609375 C 18.570312 -0.617188 18 -1.710938 17.25 -2.671875 C 15.914062 -3.765625 14.460938 -4.273438 12.890625 -4.203125 C 11.316406 -4.128906 9.769531 -3.503906 8.25 -2.328125 C 6.382812 -0.878906 5.328125 0.722656 5.078125 2.484375 C 4.828125 4.253906 5.320312 5.941406 6.5625 7.546875 C 7.800781 9.148438 9.070312 10.070312 10.375 10.3125 L 9.328125 11.125 C 8.046875 10.375 6.804688 9.234375 5.609375 7.703125 Z M 5.609375 7.703125 " style="fill: rgb(255, 196, 0);"></path>
        </g>
      </g>
    </g>
    <g fill="#000000" fill-opacity="1">
      <g transform="translate(70.67249, 295.39202)">
        <g>
          <path d="M 8.765625 -2.484375 L 3.21875 3.15625 L 1.546875 1.515625 L 12.71875 -9.875 L 14.390625 -8.234375 L 9.40625 -3.140625 L 14.609375 1.984375 L 19.59375 -3.109375 L 21.265625 -1.46875 L 10.09375 9.921875 L 8.421875 8.28125 L 13.96875 2.640625 Z M 8.765625 -2.484375 " style="fill: rgb(255, 196, 0);"></path>
        </g>
      </g>
    </g>
    <g fill="#000000" fill-opacity="1">
      <g transform="translate(86.470972, 310.343865)">
        <g>
          <path d="M 0.1875 0.140625 L 15.71875 -8.640625 L 16.015625 -8.421875 L 11.9375 8.953125 L 9.84375 7.375 L 11 2.8125 L 5.265625 -1.46875 L 1.234375 0.921875 Z M 6.09375 -1.984375 L 11.234375 1.859375 L 13.375 -6.296875 Z M 6.09375 -1.984375 " style="fill: rgb(255, 196, 0);"></path>
        </g>
      </g>
    </g>
    <g fill="#000000" fill-opacity="1">
      <g transform="translate(103.005056, 322.139703)">
        <g>
          <path d="M 12 -11.390625 L 3.765625 2.265625 L 1.859375 1.125 L 10.09375 -12.53125 Z M 12 -11.390625 " style="fill: rgb(255, 196, 0);"></path>
        </g>
      </g>
    </g>
    <g fill="#000000" fill-opacity="1">
      <g transform="translate(113.088277, 328.201892)">
        <g>
          <path d="M 12.84375 6.28125 L 12.46875 6.109375 L 8.5 -10.328125 L 8.421875 -10.359375 L 2.9375 1.375 L 1.96875 0.921875 L 8.71875 -13.53125 L 10.328125 -12.78125 L 13.75 1.609375 L 13.828125 1.65625 L 18.734375 -8.84375 L 19.703125 -8.40625 Z M 12.84375 6.28125 " style="fill: rgb(255, 196, 0);"></path>
        </g>
      </g>
    </g>
    <g fill="#000000" fill-opacity="1">
      <g transform="translate(143.504649, 340.546946)">
        <g>
          <path d="M 13.515625 -3.875 L 15.796875 -3.34375 L 14.34375 2.828125 C 12.875 3.035156 11.195312 2.921875 9.3125 2.484375 C 7.007812 1.941406 5.164062 0.863281 3.78125 -0.75 C 3.113281 -1.550781 2.65625 -2.503906 2.40625 -3.609375 C 2.15625 -4.722656 2.171875 -5.878906 2.453125 -7.078125 C 2.734375 -8.285156 3.175781 -9.320312 3.78125 -10.1875 C 4.382812 -11.0625 5.0625 -11.75 5.8125 -12.25 C 6.570312 -12.757812 7.398438 -13.148438 8.296875 -13.421875 C 9.992188 -13.898438 11.726562 -13.929688 13.5 -13.515625 C 14.1875 -13.347656 14.910156 -13.09375 15.671875 -12.75 C 16.441406 -12.40625 17.015625 -12.101562 17.390625 -11.84375 L 16.78125 -10.3125 C 14.882812 -11.707031 13.234375 -12.566406 11.828125 -12.890625 C 10.160156 -12.859375 8.71875 -12.316406 7.5 -11.265625 C 6.289062 -10.210938 5.472656 -8.769531 5.046875 -6.9375 C 4.503906 -4.65625 4.691406 -2.75 5.609375 -1.21875 C 6.523438 0.3125 7.96875 1.3125 9.9375 1.78125 C 10.71875 1.957031 11.445312 2.039062 12.125 2.03125 Z M 13.515625 -3.875 " style="fill: rgb(255, 196, 0);"></path>
        </g>
      </g>
    </g>
    <g fill="#000000" fill-opacity="1">
      <g transform="translate(164.619754, 344.964234)">
        <g>
          <path d="M 6.359375 -15.28125 L 4.359375 0.546875 L 2.15625 0.265625 L 4.15625 -15.5625 Z M 6.359375 -15.28125 " style="fill: rgb(255, 196, 0);"></path>
        </g>
      </g>
    </g>
    <g fill="#000000" fill-opacity="1">
      <g transform="translate(176.236597, 346.374338)">
        <g>
          <path d="M 7.390625 0.59375 L 0.671875 -15.953125 L 3.3125 -15.875 L 8.25 -2.671875 L 13.390625 -15.59375 L 14.59375 -15.5625 L 7.765625 0.609375 Z M 7.390625 0.59375 " style="fill: rgb(255, 196, 0);"></path>
        </g>
      </g>
    </g>
    <g fill="#000000" fill-opacity="1">
      <g transform="translate(195.754887, 346.470906)">
        <g>
          <path d="M 3.25 -16.21875 L 4.375 -0.3125 L 2.171875 -0.15625 L 1.046875 -16.0625 Z M 3.25 -16.21875 " style="fill: rgb(255, 196, 0);"></path>
        </g>
      </g>
    </g>
    <g fill="#000000" fill-opacity="1">
      <g transform="translate(207.489491, 345.628349)">
        <g>
          <path d="M 14.125 -2.234375 L 13.71875 -2.15625 L 1.015625 -13.328125 L 0.921875 -13.3125 L 3.1875 -0.5625 L 2.140625 -0.375 L -0.640625 -16.078125 L 1.109375 -16.390625 L 12.171875 -6.59375 L 12.265625 -6.609375 L 10.25 -18.015625 L 11.296875 -18.203125 Z M 14.125 -2.234375 " style="fill: rgb(255, 196, 0);"></path>
        </g>
      </g>
    </g>
    <g fill="#000000" fill-opacity="1">
      <g transform="translate(229.020774, 341.422359)">
        <g>
          <path d="M 9.546875 -10.328125 L 11.765625 -11.046875 L 13.734375 -5 C 12.585938 -4.050781 11.09375 -3.28125 9.25 -2.6875 C 7 -1.957031 4.867188 -1.925781 2.859375 -2.59375 C 1.867188 -2.9375 0.976562 -3.515625 0.1875 -4.328125 C -0.59375 -5.148438 -1.175781 -6.148438 -1.5625 -7.328125 C -1.945312 -8.503906 -2.109375 -9.617188 -2.046875 -10.671875 C -1.984375 -11.734375 -1.757812 -12.675781 -1.375 -13.5 C -0.988281 -14.320312 -0.476562 -15.078125 0.15625 -15.765625 C 1.34375 -17.054688 2.804688 -17.984375 4.546875 -18.546875 C 5.210938 -18.765625 5.960938 -18.925781 6.796875 -19.03125 C 7.640625 -19.132812 8.289062 -19.171875 8.75 -19.140625 L 9.015625 -17.53125 C 6.679688 -17.726562 4.828125 -17.601562 3.453125 -17.15625 C 2.035156 -16.257812 1.082031 -15.050781 0.59375 -13.53125 C 0.101562 -12.007812 0.148438 -10.347656 0.734375 -8.546875 C 1.453125 -6.316406 2.597656 -4.78125 4.171875 -3.9375 C 5.742188 -3.101562 7.492188 -3 9.421875 -3.625 C 10.179688 -3.875 10.847656 -4.179688 11.421875 -4.546875 Z M 9.546875 -10.328125 " style="fill: rgb(255, 196, 0);"></path>
        </g>
      </g>
    </g>
    <g fill="#000000" fill-opacity="1">
      <g transform="translate(259.506954, 329.70899)">
        <g>
          <path d="M -3.03125 -13.421875 C -2.6875 -12.796875 -2.125 -12.351562 -1.34375 -12.09375 C -0.5625 -11.84375 0.285156 -11.707031 1.203125 -11.6875 C 2.117188 -11.675781 3.035156 -11.65625 3.953125 -11.625 C 4.867188 -11.601562 5.738281 -11.425781 6.5625 -11.09375 C 7.394531 -10.769531 8.015625 -10.238281 8.421875 -9.5 C 9.066406 -8.351562 9.164062 -7.175781 8.71875 -5.96875 C 8.269531 -4.757812 7.320312 -3.75 5.875 -2.9375 C 4.4375 -2.132812 2.859375 -1.617188 1.140625 -1.390625 L 0.578125 -2.375 C 2.410156 -2.457031 3.828125 -2.78125 4.828125 -3.34375 C 5.835938 -3.90625 6.484375 -4.585938 6.765625 -5.390625 C 7.054688 -6.191406 6.957031 -7.03125 6.46875 -7.90625 C 6.144531 -8.488281 5.613281 -8.890625 4.875 -9.109375 C 4.144531 -9.335938 3.347656 -9.445312 2.484375 -9.4375 C 1.617188 -9.425781 0.753906 -9.421875 -0.109375 -9.421875 C -0.972656 -9.429688 -1.800781 -9.601562 -2.59375 -9.9375 C -3.382812 -10.269531 -4.007812 -10.847656 -4.46875 -11.671875 C -4.9375 -12.503906 -5 -13.484375 -4.65625 -14.609375 C -4.320312 -15.734375 -3.425781 -16.703125 -1.96875 -17.515625 C -1.007812 -18.046875 0.316406 -18.5 2.015625 -18.875 L 2.609375 -17.328125 C 0.242188 -17.085938 -1.609375 -16.59375 -2.953125 -15.84375 C -3.484375 -15.082031 -3.507812 -14.273438 -3.03125 -13.421875 Z M -3.03125 -13.421875 " style="fill: rgb(255, 196, 0);"></path>
        </g>
      </g>
    </g>
    <g fill="#000000" fill-opacity="1">
      <g transform="translate(275.458719, 320.332556)">
        <g>
          <path d="M -5.453125 -15.625 L 3.609375 -2.5 L 1.78125 -1.234375 L -7.28125 -14.359375 Z M -5.453125 -15.625 " style="fill: rgb(255, 196, 0);"></path>
        </g>
      </g>
    </g>
    <g fill="#000000" fill-opacity="1">
      <g transform="translate(285.337053, 313.65945)">
        <g>
          <path d="M 5.46875 -9.921875 L 1.375 -22.5625 L 3.21875 -24.1875 L 14.46875 -12.859375 L 12.640625 -11.21875 L 3.046875 -21.0625 L 2.96875 -21 L 7.53125 -6.6875 L 7.28125 -6.46875 L -5.90625 -12.359375 L -5.984375 -12.296875 L 2.265625 -2.015625 L 1.484375 -1.3125 L -8.4375 -13.828125 L -6.765625 -15.3125 Z M 5.46875 -9.921875 " style="fill: rgb(255, 196, 0);"></path>
        </g>
      </g>
    </g>
    <g fill="#000000" fill-opacity="1">
      <g transform="translate(305.011867, 295.261883)">
        <g>
          <path d="M -0.703125 -17.484375 C 0.472656 -16.484375 1 -15.296875 0.875 -13.921875 C 0.75 -12.546875 0.0625 -11.113281 -1.1875 -9.625 L -2.53125 -8.046875 L 2.90625 -3.453125 L 1.40625 -1.65625 L -10.78125 -11.953125 L -7.4375 -15.921875 C -6.394531 -17.148438 -5.253906 -17.925781 -4.015625 -18.25 C -2.785156 -18.570312 -1.679688 -18.316406 -0.703125 -17.484375 Z M -3.0625 -8.5 L -1.671875 -10.140625 C -1.191406 -10.710938 -0.882812 -11.296875 -0.75 -11.890625 C -0.625 -12.484375 -0.660156 -13.019531 -0.859375 -13.5 C -1.191406 -14.351562 -1.644531 -15.023438 -2.21875 -15.515625 C -2.5 -15.753906 -2.898438 -15.957031 -3.421875 -16.125 C -4.472656 -16.519531 -5.515625 -16.359375 -6.546875 -15.640625 C -7.285156 -14.753906 -7.875 -13.847656 -8.3125 -12.921875 Z M -3.0625 -8.5 " style="fill: rgb(255, 196, 0);"></path>
        </g>
      </g>
    </g>
    <g fill="#000000" fill-opacity="1">
      <g transform="translate(316.632583, 280.989385)">
        <g>
          <path d="M 1.203125 -1.8125 L -12.0625 -10.6875 L -10.75 -12.640625 L 1.4375 -4.484375 C 2.21875 -5.140625 2.769531 -5.710938 3.09375 -6.203125 L 4.921875 -10.25 L 6.09375 -9.109375 Z M 1.203125 -1.8125 " style="fill: rgb(255, 196, 0);"></path>
        </g>
      </g>
    </g>
    <g fill="#000000" fill-opacity="1">
      <g transform="translate(325.687095, 266.841058)">
        <g>
          <path d="M -11.890625 -11.515625 L 2.109375 -3.859375 L 1.046875 -1.90625 L -12.953125 -9.5625 Z M -11.890625 -11.515625 " style="fill: rgb(255, 196, 0);"></path>
        </g>
      </g>
    </g>
    <g fill="#000000" fill-opacity="1">
      <g transform="translate(331.161371, 256.591345)">
        <g>
          <path d="M -6.28125 -7.671875 L -4.25 -12.359375 L -3.40625 -11.984375 L -5.4375 -7.296875 L 1.8125 -4.140625 L 0.875 -1.984375 L -13.75 -8.359375 L -9.984375 -17 L -8.5 -16.359375 L -10.96875 -12.578125 C -11.289062 -11.835938 -11.519531 -10.984375 -11.65625 -10.015625 Z M -6.28125 -7.671875 " style="fill: rgb(255, 196, 0);"></path>
        </g>
      </g>
    </g>
    <g fill="#000000" fill-opacity="1">
      <g transform="translate(337.510258, 241.202636)">
        <g>
          <path d="M -13.734375 -9.234375 L 1.390625 -4.171875 L 0.6875 -2.0625 L -14.4375 -7.125 Z M -13.734375 -9.234375 " style="fill: rgb(255, 196, 0);"></path>
        </g>
      </g>
    </g>
    <g fill="#000000" fill-opacity="1">
      <g transform="translate(341.138237, 230.104011)">
        <g>
          <path d="M 0.484375 -2.109375 L -15.0625 -5.703125 L -12.875 -15.140625 L -11.359375 -14.53125 L -13.109375 -10.3125 C -13.273438 -9.550781 -13.335938 -8.6875 -13.296875 -7.71875 L -7.578125 -6.390625 L -6.375 -11.59375 L -5.484375 -11.390625 L -6.6875 -6.1875 L 0.15625 -4.609375 L 1.140625 -12.03125 L 2.640625 -11.4375 Z M 0.484375 -2.109375 " style="fill: rgb(255, 196, 0);"></path>
        </g>
      </g>
    </g>
    <g fill="#000000" fill-opacity="1">
      <g transform="translate(345.176334, 211.575669)">
        <g>
          <path d="M 0.203125 -2.15625 L -15.671875 -3.703125 L -15.21875 -8.234375 C -15.039062 -10.128906 -14.484375 -11.789062 -13.546875 -13.21875 C -13.046875 -14 -12.453125 -14.664062 -11.765625 -15.21875 C -11.085938 -15.769531 -10.242188 -16.179688 -9.234375 -16.453125 C -8.234375 -16.722656 -7.144531 -16.800781 -5.96875 -16.6875 C -4.269531 -16.519531 -2.878906 -15.957031 -1.796875 -15 C 0.203125 -13.238281 1.03125 -10.625 0.6875 -7.15625 Z M -0.171875 -6.75 C 0.0234375 -8.78125 -0.414062 -10.46875 -1.5 -11.8125 C -2.582031 -13.164062 -4.285156 -13.957031 -6.609375 -14.1875 C -8.390625 -14.363281 -9.960938 -14.019531 -11.328125 -13.15625 C -12.703125 -12.300781 -13.664062 -11.125 -14.21875 -9.625 C -14.351562 -8.21875 -14.3125 -6.984375 -14.09375 -5.921875 L -0.59375 -4.609375 C -0.394531 -5.097656 -0.253906 -5.8125 -0.171875 -6.75 Z M -0.171875 -6.75 " style="fill: rgb(255, 196, 0);"></path>
        </g>
      </g>
    </g>
    <g fill="#000000" fill-opacity="1">
      <g transform="translate(346.764718, 189.382542)">
        <g>
          <path d="M -0.125 -2.0625 C -0.382812 -1.8125 -0.695312 -1.679688 -1.0625 -1.671875 C -1.4375 -1.671875 -1.753906 -1.796875 -2.015625 -2.046875 C -2.285156 -2.304688 -2.421875 -2.617188 -2.421875 -2.984375 C -2.429688 -3.359375 -2.300781 -3.675781 -2.03125 -3.9375 C -1.769531 -4.207031 -1.453125 -4.34375 -1.078125 -4.34375 C -0.710938 -4.351562 -0.398438 -4.222656 -0.140625 -3.953125 C 0.109375 -3.691406 0.234375 -3.375 0.234375 -3 C 0.242188 -2.632812 0.125 -2.320312 -0.125 -2.0625 Z M -0.125 -2.0625 " style="fill: rgb(255, 196, 0);"></path>
        </g>
      </g>
    </g>
  </g>
  <g transform="matrix(1, 0, 0, 1, 37.500001, 37.500001)">
    <bx:title>The Give Hub</bx:title>
    <path d="M 48.003 114.671 L 73.378 125.781 L 70.316 132.765 L 44.941 121.656 L 40.972 130.718 L 34.628 127.953 L 45.628 102.843 L 51.972 105.609 L 48.003 114.671 Z M 48.003 114.671" style="fill: rgb(255, 255, 255);">
      <bx:title>T</bx:title>
    </path>
    <path d="M 62.747 78.176 L 67.669 71.692 L 95.232 92.645 L 90.31 99.129 L 79.232 90.723 L 72.326 99.801 L 83.404 108.207 L 78.794 114.286 L 51.232 93.332 L 55.841 87.254 L 66.826 95.598 L 73.732 86.52 L 62.747 78.176 Z M 62.747 78.176" style="fill: rgb(255, 255, 255);">
      <bx:title>H</bx:title>
    </path>
    <path d="M 110.57 70.692 L 114.976 76.036 L 99.491 88.802 L 77.46 62.083 L 92.945 49.317 L 97.351 54.661 L 87.757 62.583 L 92.132 67.896 L 101.32 60.302 L 105.726 65.63 L 96.538 73.224 L 100.976 78.614 L 110.57 70.692 Z M 110.57 70.692" style="fill: rgb(255, 255, 255);">
      <bx:title>E</bx:title>
    </path>
    <path d="M 139.125 33.361 C 137.383 33.947 135.942 34.951 134.797 36.377 C 133.66 37.795 132.914 39.42 132.563 41.252 C 132.207 43.076 132.344 44.92 132.969 46.783 C 133.582 48.619 134.582 50.174 135.969 51.455 C 137.363 52.729 138.942 53.588 140.703 54.033 C 142.473 54.482 144.227 54.416 145.969 53.83 C 147.02 53.479 148.082 52.951 149.156 52.252 C 150.227 51.545 151.125 50.588 151.844 49.377 C 152.563 48.17 152.942 46.654 152.985 44.83 L 144.625 47.611 L 142.797 42.158 L 158.985 36.752 L 159.36 37.861 C 160.129 40.186 160.422 42.514 160.235 44.846 C 160.047 47.182 159.442 49.389 158.422 51.471 C 157.399 53.545 156.02 55.357 154.281 56.908 C 152.539 58.451 150.5 59.619 148.156 60.408 C 145.832 61.182 143.5 61.467 141.156 61.268 C 138.813 61.061 136.61 60.447 134.547 59.424 C 132.485 58.393 130.672 57.002 129.11 55.252 C 127.547 53.502 126.383 51.467 125.61 49.143 C 124.828 46.822 124.539 44.494 124.735 42.158 C 124.934 39.826 125.547 37.627 126.578 35.565 C 127.61 33.502 129 31.686 130.75 30.111 C 132.5 28.541 134.535 27.369 136.86 26.596 C 139.266 25.783 141.711 25.514 144.203 25.783 C 146.692 26.045 149.031 26.768 151.219 27.955 C 153.406 29.143 155.25 30.752 156.75 32.783 L 148.781 35.44 C 147.383 33.971 145.828 33.123 144.11 32.893 C 142.391 32.666 140.727 32.822 139.125 33.361 Z M 139.125 33.361" style="fill: rgb(255, 255, 255);">
      <bx:title>G</bx:title>
    </path>
    <path d="M 177.411 53.893 L 169.833 54.736 L 165.989 20.33 L 173.567 19.486 L 177.411 53.893 Z M 177.411 53.893" style="fill: rgb(255, 255, 255);">
      <bx:title>I</bx:title>
    </path>
    <path d="M 218.214 20.889 L 201.402 54.233 L 194.871 53.702 L 183.761 18.03 L 191.98 18.717 L 197.496 38.686 L 198.902 44.28 L 201.246 38.998 L 209.996 20.217 L 218.214 20.889 Z M 218.214 20.889" style="fill: rgb(255, 255, 255);">
      <bx:title>V</bx:title>
    </path>
    <path d="M 239.19 56.561 L 237.018 63.123 L 217.971 56.811 L 228.878 23.951 L 247.924 30.264 L 245.737 36.826 L 233.924 32.905 L 231.768 39.436 L 243.081 43.201 L 240.893 49.764 L 229.581 45.998 L 227.378 52.639 L 239.19 56.561 Z M 239.19 56.561" style="fill: rgb(255, 255, 255);">
      <bx:title>E</bx:title>
    </path>
    <path d="M 291.261 56.522 L 297.683 61.554 L 276.34 88.819 L 269.918 83.788 L 278.496 72.835 L 269.511 65.804 L 260.933 76.757 L 254.933 72.054 L 276.277 44.788 L 282.277 49.491 L 273.777 60.366 L 282.761 67.397 L 291.261 56.522 Z M 291.261 56.522" style="fill: rgb(255, 255, 255);">
      <bx:title>H</bx:title>
    </path>
    <path d="M 319.87 87.729 L 324.495 93.807 L 307.698 106.604 C 304.01 109.405 300.467 110.518 297.073 109.948 C 293.674 109.373 290.608 107.291 287.87 103.698 C 285.139 100.112 283.952 96.608 284.307 93.182 C 284.659 89.756 286.682 86.643 290.37 83.838 L 307.167 71.041 L 311.792 77.12 L 295.87 89.245 C 293.983 90.682 292.799 92.166 292.323 93.698 C 291.854 95.237 292.393 97.03 293.948 99.073 C 295.53 101.155 297.12 102.166 298.713 102.104 C 300.315 102.041 302.061 101.291 303.948 99.854 L 319.87 87.729 Z M 319.87 87.729" style="fill: rgb(255, 255, 255);">
      <bx:title>U</bx:title>
    </path>
    <path d="M 315.047 130.394 C 316.067 129.945 316.797 129.168 317.235 128.066 C 317.672 126.972 317.657 125.894 317.188 124.832 L 315.25 120.394 L 307.594 123.754 L 309.532 128.191 C 310 129.254 310.77 129.996 311.844 130.426 C 312.926 130.863 313.992 130.851 315.047 130.394 Z M 327.344 122.394 C 328.375 121.945 329.086 121.195 329.485 120.144 C 329.879 119.101 329.86 118.086 329.422 117.097 L 328.36 114.66 L 320.985 117.879 L 322.047 120.316 C 322.485 121.304 323.223 122.008 324.266 122.426 C 325.317 122.84 326.344 122.832 327.344 122.394 Z M 318.016 137.613 C 315.274 138.808 312.703 138.929 310.297 137.972 C 307.891 137.023 306.02 135.027 304.688 131.988 L 299.078 119.176 L 330.797 105.285 L 335.578 116.176 C 336.36 117.988 336.68 119.707 336.547 121.332 C 336.41 122.965 335.899 124.41 335.016 125.66 C 334.141 126.91 332.973 127.855 331.516 128.504 C 329.899 129.211 328.364 129.488 326.907 129.332 C 325.446 129.176 324.196 128.621 323.157 127.676 C 323.52 129.621 323.285 131.527 322.453 133.394 C 321.629 135.269 320.149 136.676 318.016 137.613 Z M 318.016 137.613" style="fill: rgb(255, 255, 255);">
      <bx:title>B</bx:title>
    </path>
  </g>
</svg>
