<svg xmlns="http://www.w3.org/2000/svg" viewBox="0 0 207.772 205.375" width="210.833px" height="210.833px" xmlns:bx="https://boxy-svg.com">
  <defs>
    <clipPath id="997eeaadf5">
      <path d="M 92.765625 99.101562 L 282.515625 99.101562 L 282.515625 288.851562 L 92.765625 288.851562 Z M 92.765625 99.101562 " clip-rule="nonzero"></path>
    </clipPath>
    <clipPath id="119446c84a">
      <path d="M 187.5 144.871094 C 160.457031 144.871094 138.539062 166.792969 138.539062 193.835938 C 138.539062 220.875 160.457031 242.796875 187.5 242.796875 C 214.542969 242.796875 236.460938 220.875 236.460938 193.835938 C 236.460938 166.792969 214.542969 144.871094 187.5 144.871094 Z M 187.5 144.871094 " clip-rule="nonzero"></path>
    </clipPath>
    <bx:export>
      <bx:file format="png" path="favicon.png" width="64" height="64">
        <bx:variant scale="2" suffix="@2x"></bx:variant>
      </bx:file>
    </bx:export>
  </defs>
  <g clip-path="url(#997eeaadf5)" style="" transform="matrix(1, 0, 0, 1, -83.857295, -90.666629)">
    <bx:title>Logo</bx:title>
    <path d="M 187.640625 244.726562 C 159.65625 244.726562 136.890625 221.960938 136.890625 193.976562 C 136.890625 165.992188 159.65625 143.226562 187.640625 143.226562 C 215.625 143.226562 238.394531 165.992188 238.394531 193.976562 C 238.394531 221.960938 215.625 244.726562 187.640625 244.726562 Z M 271.515625 182.972656 C 266.636719 182.972656 262.507812 186.144531 261.0625 190.539062 L 245.167969 190.539062 C 244.378906 177.234375 239.0625 165.128906 230.730469 155.753906 L 244.269531 142.214844 C 248.394531 144.296875 253.5625 143.621094 257.007812 140.171875 C 261.304688 135.875 261.304688 128.90625 257.007812 124.609375 C 252.710938 120.3125 245.746094 120.3125 241.449219 124.609375 C 238 128.058594 237.320312 133.222656 239.40625 137.351562 L 225.867188 150.886719 C 216.488281 142.558594 204.386719 137.238281 191.082031 136.453125 L 191.082031 120.558594 C 195.472656 119.113281 198.644531 114.980469 198.644531 110.105469 C 198.644531 104.027344 193.71875 99.101562 187.640625 99.101562 C 181.566406 99.101562 176.640625 104.027344 176.640625 110.105469 C 176.640625 114.980469 179.8125 119.113281 184.203125 120.558594 L 184.203125 136.453125 C 170.898438 137.238281 158.796875 142.558594 149.417969 150.886719 L 135.878906 137.351562 C 137.964844 133.222656 137.285156 128.058594 133.835938 124.609375 C 129.539062 120.3125 122.574219 120.3125 118.277344 124.609375 C 113.980469 128.90625 113.980469 135.875 118.277344 140.171875 C 121.722656 143.621094 126.886719 144.296875 131.015625 142.214844 L 144.550781 155.753906 C 136.226562 165.128906 130.90625 177.234375 130.117188 190.539062 L 114.222656 190.539062 C 112.777344 186.144531 108.644531 182.972656 103.769531 182.972656 C 97.695312 182.972656 92.765625 187.898438 92.765625 193.976562 C 92.765625 200.054688 97.695312 204.980469 103.769531 204.980469 C 108.644531 204.980469 112.777344 201.808594 114.222656 197.417969 L 130.117188 197.417969 C 130.90625 210.722656 136.226562 222.824219 144.550781 232.203125 L 131.015625 245.738281 C 126.886719 243.65625 121.722656 244.335938 118.277344 247.78125 C 113.980469 252.078125 113.980469 259.046875 118.277344 263.34375 C 122.574219 267.640625 129.539062 267.640625 133.835938 263.34375 C 137.285156 259.898438 137.964844 254.730469 135.878906 250.605469 L 149.417969 237.066406 C 158.796875 245.394531 170.898438 250.714844 184.203125 251.503906 L 184.203125 267.398438 C 179.8125 268.84375 176.640625 272.972656 176.640625 277.847656 C 176.640625 283.925781 181.566406 288.851562 187.640625 288.851562 C 193.71875 288.851562 198.644531 283.925781 198.644531 277.847656 C 198.644531 272.972656 195.472656 268.84375 191.082031 267.398438 L 191.082031 251.503906 C 204.386719 250.714844 216.488281 245.394531 225.867188 237.066406 L 239.40625 250.605469 C 237.320312 254.730469 238 259.898438 241.449219 263.34375 C 245.746094 267.640625 252.710938 267.640625 257.007812 263.34375 C 261.304688 259.046875 261.304688 252.078125 257.007812 247.78125 C 253.5625 244.335938 248.394531 243.65625 244.269531 245.738281 L 230.730469 232.203125 C 239.0625 222.824219 244.378906 210.722656 245.167969 197.417969 L 261.0625 197.417969 C 262.507812 201.808594 266.636719 204.980469 271.515625 204.980469 C 277.589844 204.980469 282.515625 200.054688 282.515625 193.976562 C 282.515625 187.898438 277.589844 182.972656 271.515625 182.972656 " fill-opacity="1" fill-rule="nonzero" style="fill: rgb(208, 208, 208);">
      <bx:title>Network</bx:title>
    </path>
    <g clip-path="url(#119446c84a)" style="">
      <bx:title>Circle</bx:title>
      <path d="M 138.539062 144.871094 L 236.460938 144.871094 L 236.460938 242.796875 L 138.539062 242.796875 Z M 138.539062 144.871094 " fill-opacity="1" fill-rule="nonzero" style="fill: rgb(14, 78, 100);"></path>
    </g>
  </g>
  <g transform="matrix(1, 0, 0, 1, -121.862003, -117.063007)" style="">
    <ellipse style="stroke-width: 0.953px; fill: rgb(255, 201, 0);" cx="224.504" cy="134.621" rx="17.558" ry="17.558"></ellipse>
    <ellipse style="stroke-width: 0.953px; fill: rgb(255, 201, 0);" cx="165.405" cy="160.45" rx="17.558" ry="17.558"></ellipse>
    <ellipse style="stroke-width: 0.953px; fill: rgb(255, 201, 0);" cx="139.42" cy="219.533" rx="17.558" ry="17.558"></ellipse>
    <ellipse style="stroke-width: 0.953px; fill: rgb(255, 201, 0);" cx="163.85" cy="281.284" rx="17.558" ry="17.558"></ellipse>
    <ellipse style="stroke-width: 0.953px; fill: rgb(255, 201, 0);" cx="225.748" cy="304.88" rx="17.558" ry="17.558"></ellipse>
    <ellipse style="stroke-width: 0.953px; fill: rgb(255, 201, 0);" cx="286.09" cy="280.709" rx="17.558" ry="17.558"></ellipse>
    <ellipse style="stroke-width: 0.953px; fill: rgb(255, 201, 0);" cx="312.076" cy="220.941" rx="17.558" ry="17.558"></ellipse>
    <ellipse style="stroke-width: 0.953px; fill: rgb(255, 201, 0);" cx="289.221" cy="157.486" rx="17.558" ry="17.558"></ellipse>
  </g>
  <g style="" transform="matrix(1, 0, 0, 1, -83.447001, -92.183001)">
    <bx:title>Hand</bx:title>
    <path d="M 162.382812 208.144531 L 159.523438 210.15625 C 156.917969 211.992188 155.128906 212.761719 151.273438 205.992188 L 149.667969 203.1875 C 145.8125 196.40625 147.210938 194.941406 149.8125 193.113281 L 152.679688 191.097656 Z M 162.382812 208.144531 " fill-opacity="1" fill-rule="nonzero" style="fill: rgb(255, 255, 255); stroke-width: 3px;"></path>
    <path d="M 231.433594 192.648438 C 231.890625 193.5 232.105469 194.507812 232.003906 195.433594 C 231.886719 196.542969 231.359375 197.351562 230.90625 197.503906 L 200.9375 211.039062 C 196.59375 212.445312 189.746094 210.132812 183.703125 208.09375 C 178.566406 206.359375 174.132812 204.855469 171.433594 205.75 L 164.972656 206.9375 L 155.15625 189.703125 L 163.820312 185.78125 C 170.457031 182.773438 174.449219 184.28125 181.066406 186.777344 C 185.117188 188.308594 190.164062 190.203125 197.160156 191.511719 C 202.925781 192.585938 204.617188 196.445312 205.003906 197.601562 C 205.46875 199.007812 205.398438 200.378906 204.828125 201.089844 C 204.210938 201.84375 203.839844 201.828125 200.871094 200.953125 C 200.375 200.8125 199.828125 200.652344 199.226562 200.484375 C 199.136719 200.460938 199.046875 200.449219 198.953125 200.445312 L 185.695312 199.761719 C 184.921875 199.722656 184.289062 200.402344 184.285156 201.277344 C 184.285156 202.152344 184.910156 202.898438 185.679688 202.9375 L 198.804688 203.613281 C 199.339844 203.765625 199.828125 203.902344 200.273438 204.035156 C 203.214844 204.898438 205.15625 205.472656 206.929688 203.296875 C 207.863281 202.128906 208.25 200.433594 208.058594 198.605469 L 228.445312 190.851562 C 229.230469 190.613281 230.167969 190.996094 230.902344 191.863281 C 231.101562 192.105469 231.28125 192.375 231.433594 192.65625 Z M 231.433594 192.648438 " fill-opacity="1" fill-rule="nonzero" style="fill: rgb(255, 255, 255); stroke-width: 3px;"></path>
  </g>
</svg>
