<svg xmlns="http://www.w3.org/2000/svg" viewBox="0 0 317.326 178.659" width="174.781px" height="159.464px" xmlns:bx="https://boxy-svg.com">
  <path d="M 23.279 168.66 L 294.047 168.66 C 301.381 168.66 307.326 162.84 307.326 155.66 L 307.326 55.394 C 307.326 48.214 301.381 42.394 294.047 42.394 L 249.974 42.394 L 246.87 10.001 L 207.257 42.394 L 23.279 42.394 C 15.945 42.394 10 48.214 10 55.394 L 10 155.66 C 10 162.84 15.945 168.66 23.279 168.66 Z" style="stroke-width: 13.278; stroke-linejoin: round; fill: none; stroke: rgb(253, 190, 51); transform-origin: 158.663px 89.33px;" transform="matrix(-1, 0, 0, -1, 0.000024, -0.000007)"></path>
  <path d="M 92.194 102.062 L 92.194 40.462 L 101.082 40.462 L 101.082 102.062 L 92.194 102.062 Z M 51.714 102.062 L 51.714 40.462 L 60.602 40.462 L 60.602 102.062 L 51.714 102.062 Z M 55.674 75.663 L 55.674 67.039 L 96.066 67.039 L 96.066 75.663 L 55.674 75.663 Z M 137.413 102.942 C 132.661 102.942 128.466 101.931 124.829 99.907 C 121.192 97.882 118.346 95.11 116.293 91.59 C 114.24 88.07 113.213 84.022 113.213 79.446 C 113.213 75.809 113.8 72.494 114.973 69.502 C 116.147 66.51 117.76 63.929 119.813 61.758 C 121.866 59.588 124.33 57.901 127.205 56.699 C 130.08 55.496 133.218 54.895 136.621 54.895 C 139.613 54.895 142.4 55.452 144.981 56.566 C 147.563 57.681 149.806 59.236 151.713 61.23 C 153.62 63.225 155.072 65.586 156.069 68.314 C 157.066 71.042 157.536 74.02 157.477 77.246 L 157.389 80.943 L 119.461 80.943 L 117.701 74.078 L 150.173 74.078 L 148.853 75.575 L 148.853 73.463 C 148.677 71.526 148.032 69.737 146.917 68.095 C 145.802 66.452 144.351 65.146 142.561 64.179 C 140.772 63.211 138.792 62.727 136.621 62.727 C 133.394 62.727 130.681 63.342 128.481 64.574 C 126.281 65.806 124.594 67.61 123.421 69.986 C 122.248 72.363 121.661 75.311 121.661 78.831 C 121.661 82.174 122.336 85.064 123.685 87.498 C 125.035 89.933 126.971 91.81 129.493 93.13 C 132.016 94.45 134.949 95.111 138.293 95.111 C 140.523 95.111 142.649 94.744 144.673 94.01 C 146.697 93.277 148.882 91.884 151.229 89.831 L 155.541 95.814 C 154.133 97.222 152.432 98.454 150.437 99.511 C 148.443 100.566 146.316 101.402 144.057 102.018 C 141.799 102.634 139.584 102.942 137.413 102.942 Z M 167.336 102.062 L 167.336 36.942 L 175.872 36.942 L 175.872 102.062 L 167.336 102.062 Z M 188.891 102.062 L 188.891 36.942 L 197.427 36.942 L 197.427 102.062 L 188.891 102.062 Z M 230.072 102.942 C 225.554 102.942 221.521 101.901 217.972 99.818 C 214.422 97.736 211.621 94.89 209.568 91.283 C 207.514 87.674 206.488 83.553 206.488 78.919 C 206.488 74.284 207.514 70.162 209.568 66.555 C 211.621 62.946 214.422 60.116 217.972 58.062 C 221.521 56.009 225.554 54.983 230.072 54.983 C 234.53 54.983 238.534 56.009 242.083 58.062 C 245.633 60.116 248.434 62.946 250.487 66.555 C 252.541 70.162 253.567 74.284 253.567 78.919 C 253.567 83.553 252.541 87.674 250.487 91.283 C 248.434 94.89 245.633 97.736 242.083 99.818 C 238.534 101.901 234.53 102.942 230.072 102.942 Z M 230.072 95.111 C 232.946 95.111 235.513 94.407 237.771 92.999 C 240.03 91.591 241.79 89.669 243.051 87.234 C 244.313 84.8 244.914 82.028 244.855 78.919 C 244.914 75.809 244.313 73.022 243.051 70.558 C 241.79 68.095 240.03 66.173 237.771 64.794 C 235.513 63.416 232.946 62.727 230.072 62.727 C 227.197 62.727 224.616 63.431 222.327 64.839 C 220.039 66.247 218.265 68.183 217.003 70.646 C 215.742 73.11 215.141 75.868 215.2 78.919 C 215.141 82.028 215.742 84.8 217.003 87.234 C 218.265 89.669 220.039 91.591 222.327 92.999 C 224.616 94.407 227.197 95.111 230.072 95.111 Z M 264.916 80.854 C 264.506 77.158 264.154 73.33 263.86 69.37 C 263.567 65.41 263.332 61.494 263.157 57.622 C 262.981 53.751 262.893 50.084 262.893 46.622 L 262.893 40.462 L 271.868 40.462 L 271.868 46.622 C 271.868 50.26 271.795 54.073 271.648 58.062 C 271.502 62.052 271.267 65.997 270.944 69.898 C 270.622 73.8 270.255 77.452 269.844 80.854 L 264.916 80.854 Z M 267.116 103.03 C 265.298 103.03 263.875 102.473 262.848 101.358 C 261.822 100.244 261.308 98.689 261.308 96.694 C 261.308 94.817 261.851 93.292 262.936 92.118 C 264.022 90.945 265.415 90.358 267.116 90.358 C 268.994 90.358 270.431 90.901 271.428 91.986 C 272.426 93.072 272.925 94.641 272.925 96.694 C 272.925 98.572 272.396 100.097 271.34 101.27 C 270.284 102.444 268.876 103.03 267.116 103.03 Z" style="line-height: 280.162px; stroke-width: 0.62px; text-transform: capitalize; text-wrap-mode: nowrap; fill: rgb(253, 190, 51);">
    <bx:title>Hello</bx:title>
  </path>
</svg>
