<svg xmlns="http://www.w3.org/2000/svg" viewBox="0 0 317.326 178.659" width="174.781px" height="159.464px">
  <path d="M 23.279 168.66 L 294.047 168.66 C 301.381 168.66 307.326 162.84 307.326 155.66 L 307.326 55.394 C 307.326 48.214 301.381 42.394 294.047 42.394 L 249.974 42.394 L 246.87 10.001 L 207.257 42.394 L 23.279 42.394 C 15.945 42.394 10 48.214 10 55.394 L 10 155.66 C 10 162.84 15.945 168.66 23.279 168.66 Z" style="stroke-width: 13.278; stroke-linejoin: round; fill: none; stroke: rgb(253, 190, 51); transform-origin: 158.663px 89.33px;" transform="matrix(-1, 0, 0, -1, 0.000024, -0.000007)"></path>
  <path d="M 52.176 72.551 C 52.587 76.247 52.954 80.075 53.276 84.035 C 53.599 87.995 53.834 91.911 53.98 95.783 C 54.127 99.655 54.2 103.321 54.2 106.783 L 54.2 112.943 L 45.224 112.943 L 45.224 106.783 C 45.224 103.146 45.312 99.332 45.488 95.343 C 45.664 91.354 45.899 87.408 46.192 83.507 C 46.486 79.605 46.838 75.954 47.248 72.551 L 52.176 72.551 Z M 49.976 50.375 C 51.854 50.375 53.291 50.932 54.288 52.047 C 55.286 53.162 55.784 54.716 55.784 56.711 C 55.784 58.588 55.256 60.114 54.2 61.287 C 53.144 62.46 51.736 63.047 49.976 63.047 C 48.158 63.047 46.735 62.504 45.708 61.419 C 44.682 60.334 44.168 58.764 44.168 56.711 C 44.168 54.834 44.711 53.308 45.796 52.135 C 46.882 50.962 48.275 50.375 49.976 50.375 Z M 109.891 97.983 L 109.891 36.383 L 118.779 36.383 L 118.779 97.983 L 109.891 97.983 Z M 69.411 97.983 L 69.411 36.383 L 78.299 36.383 L 78.299 97.983 L 69.411 97.983 Z M 73.37 71.583 L 73.37 62.959 L 113.763 62.959 L 113.763 71.583 L 73.37 71.583 Z M 154.505 98.863 C 149.988 98.863 145.955 97.822 142.406 95.739 C 138.856 93.656 136.055 90.811 134.001 87.203 C 131.948 83.595 130.922 79.474 130.922 74.839 C 130.922 70.204 131.948 66.083 134.001 62.475 C 136.055 58.867 138.856 56.036 142.406 53.983 C 145.955 51.93 149.988 50.903 154.505 50.903 C 158.964 50.903 162.968 51.93 166.517 53.983 C 170.067 56.036 172.868 58.867 174.921 62.475 C 176.975 66.083 178.001 70.204 178.001 74.839 C 178.001 79.474 176.975 83.595 174.921 87.203 C 172.868 90.811 170.067 93.656 166.517 95.739 C 162.968 97.822 158.964 98.863 154.505 98.863 Z M 154.505 91.031 C 157.38 91.031 159.947 90.327 162.205 88.919 C 164.464 87.511 166.224 85.59 167.485 83.155 C 168.747 80.72 169.348 77.948 169.289 74.839 C 169.348 71.73 168.747 68.943 167.485 66.479 C 166.224 64.015 164.464 62.094 162.205 60.715 C 159.947 59.336 157.38 58.647 154.505 58.647 C 151.631 58.647 149.049 59.351 146.761 60.759 C 144.473 62.167 142.699 64.103 141.438 66.567 C 140.176 69.031 139.575 71.788 139.634 74.839 C 139.575 77.948 140.176 80.72 141.438 83.155 C 142.699 85.59 144.473 87.511 146.761 88.919 C 149.049 90.327 151.631 91.031 154.505 91.031 Z M 187.942 97.983 L 187.942 32.863 L 196.478 32.863 L 196.478 97.983 L 187.942 97.983 Z M 226.306 98.863 C 222.435 98.863 218.915 97.807 215.746 95.695 C 212.578 93.583 210.056 90.708 208.178 87.071 C 206.301 83.434 205.363 79.327 205.363 74.751 C 205.363 70.116 206.331 66.01 208.266 62.431 C 210.202 58.852 212.798 56.036 216.054 53.983 C 219.31 51.93 222.963 50.903 227.011 50.903 C 229.416 50.903 231.616 51.255 233.611 51.959 C 235.605 52.663 237.365 53.646 238.891 54.907 C 240.416 56.168 241.677 57.62 242.674 59.263 C 243.672 60.906 244.317 62.666 244.611 64.543 L 242.586 63.751 L 242.674 51.871 L 251.21 51.871 L 251.21 97.983 L 242.586 97.983 L 242.586 86.895 L 244.611 86.191 C 244.258 87.833 243.525 89.418 242.411 90.943 C 241.296 92.468 239.902 93.818 238.23 94.991 C 236.558 96.164 234.711 97.103 232.686 97.807 C 230.662 98.511 228.536 98.863 226.306 98.863 Z M 228.418 91.031 C 231.293 91.031 233.816 90.327 235.987 88.919 C 238.157 87.511 239.859 85.59 241.091 83.155 C 242.322 80.72 242.938 77.919 242.938 74.751 C 242.938 71.7 242.322 68.958 241.091 66.523 C 239.859 64.088 238.157 62.182 235.987 60.803 C 233.816 59.424 231.293 58.735 228.418 58.735 C 225.661 58.735 223.197 59.424 221.026 60.803 C 218.856 62.182 217.154 64.088 215.922 66.523 C 214.691 68.958 214.075 71.7 214.075 74.751 C 214.075 77.919 214.691 80.72 215.922 83.155 C 217.154 85.59 218.856 87.511 221.026 88.919 C 223.197 90.327 225.661 91.031 228.418 91.031 Z M 265.464 76.775 C 265.053 73.079 264.701 69.251 264.408 65.291 C 264.114 61.331 263.88 57.415 263.704 53.543 C 263.528 49.671 263.44 46.004 263.44 42.543 L 263.44 36.383 L 272.416 36.383 L 272.416 42.543 C 272.416 46.18 272.342 49.994 272.196 53.983 C 272.049 57.972 271.815 61.918 271.492 65.819 C 271.169 69.72 270.802 73.372 270.392 76.775 L 265.464 76.775 Z M 267.664 98.951 C 265.845 98.951 264.422 98.394 263.396 97.279 C 262.369 96.164 261.856 94.61 261.856 92.615 C 261.856 90.737 262.398 89.212 263.484 88.039 C 264.569 86.866 265.962 86.279 267.664 86.279 C 269.541 86.279 270.978 86.821 271.976 87.907 C 272.973 88.992 273.472 90.562 273.472 92.615 C 273.472 94.492 272.944 96.018 271.888 97.191 C 270.832 98.364 269.424 98.951 267.664 98.951 Z" style="line-height: 280.162px; stroke-width: 0.62px; text-transform: capitalize; text-wrap-mode: nowrap; fill: rgb(253, 190, 51);"></path>
</svg>
